<svg width="97" height="28" viewBox="0 0 97 28" xmlns="http://www.w3.org/2000/svg"><defs><linearGradient x1="0%" y1="100%" x2="97.668%" y2="100%" id="a"><stop stop-color="#FFF" offset="0%"/><stop stop-color="#CDCDCD" offset="100%"/></linearGradient><linearGradient x1="100%" y1="0%" x2=".771%" y2="0%" id="b"><stop stop-color="#FFF" offset="0%"/><stop stop-color="#CDCDCD" offset="100%"/></linearGradient></defs><g fill="none" fill-rule="evenodd"><path d="M47.024 21.288c-3.424 0-5.24-1.456-5.448-4.368h3.456c.032.464.22.852.564 1.164.344.312.852.468 1.524.468.64 0 1.128-.104 1.464-.312.336-.208.504-.488.504-.84 0-.384-.24-.668-.72-.852-.48-.184-1.06-.332-1.74-.444a19.301 19.301 0 0 1-2.052-.456 3.508 3.508 0 0 1-1.752-1.128c-.48-.56-.72-1.304-.72-2.232 0-1.168.464-2.152 1.392-2.952.928-.8 2.144-1.2 3.648-1.2 1.712 0 2.984.432 3.816 1.296.832.864 1.28 1.848 1.344 2.952h-3.288a1.538 1.538 0 0 0-.54-1.08c-.328-.288-.78-.432-1.356-.432-.544 0-.968.116-1.272.348-.304.232-.456.524-.456.876 0 .384.24.664.72.84.48.176 1.06.316 1.74.42.68.104 1.36.252 2.04.444.68.192 1.26.576 1.74 1.152s.72 1.344.72 2.304c0 1.168-.476 2.132-1.428 2.892-.952.76-2.252 1.14-3.9 1.14zm19.272-5.592h-9.12c.112.864.432 1.524.96 1.98.528.456 1.224.684 2.088.684.544 0 1.036-.116 1.476-.348.44-.232.756-.572.948-1.02h3.432a5.714 5.714 0 0 1-2.172 3.108c-1.08.792-2.34 1.188-3.78 1.188-1.856 0-3.376-.616-4.56-1.848-1.184-1.232-1.776-2.816-1.776-4.752 0-1.872.592-3.432 1.776-4.68 1.184-1.248 2.696-1.872 4.536-1.872 1.84 0 3.34.62 4.5 1.86 1.16 1.24 1.74 2.804 1.74 4.692l-.048 1.008zm-6.216-4.824c-.768 0-1.4.212-1.896.636-.496.424-.816 1.004-.96 1.74h5.712c-.128-.72-.44-1.296-.936-1.728-.496-.432-1.136-.648-1.92-.648zm11.976-1.104c.352-.464.852-.852 1.5-1.164.648-.312 1.388-.468 2.22-.468 1.776 0 3.184.624 4.224 1.872 1.04 1.248 1.56 2.816 1.56 4.704s-.52 3.456-1.56 4.704c-1.04 1.248-2.448 1.872-4.224 1.872-1.824 0-3.152-.608-3.984-1.824V21h-3.144V3h3.408v6.768zm-.096 4.944c0 1.04.284 1.896.852 2.568.568.672 1.316 1.008 2.244 1.008.928 0 1.676-.336 2.244-1.008.568-.672.852-1.528.852-2.568s-.284-1.896-.852-2.568c-.568-.672-1.316-1.008-2.244-1.008-.928 0-1.676.336-2.244 1.008-.568.672-.852 1.528-.852 2.568zm17.736 6.576c-1.968 0-3.56-.636-4.776-1.908-1.216-1.272-1.824-2.828-1.824-4.668 0-1.84.608-3.396 1.824-4.668 1.216-1.272 2.808-1.908 4.776-1.908s3.56.636 4.776 1.908c1.216 1.272 1.824 2.828 1.824 4.668 0 1.84-.608 3.396-1.824 4.668-1.216 1.272-2.808 1.908-4.776 1.908zm-3.192-6.576c0 1.104.3 1.976.9 2.616.6.64 1.364.96 2.292.96.928 0 1.692-.32 2.292-.96.6-.64.9-1.512.9-2.616s-.3-1.976-.9-2.616c-.6-.64-1.364-.96-2.292-.96-.928 0-1.692.32-2.292.96-.6.64-.9 1.512-.9 2.616z" fill="#FFF"/><path d="M-1-2h32v32H-1z"/><path d="M0 8a8 8 0 0 1 8 8v1H0V8z" fill="url(#a)" transform="rotate(-45 11.086 11.379)"/><path d="M16 15h8v9a8 8 0 0 1-8-8v-1z" fill="url(#b)" transform="rotate(-45 11.086 11.379)"/><path d="M17.828 11.172l11.314 11.313c-6.248 6.249-16.379 6.249-22.627 0l5.657-5.657L.858 5.515c6.248-6.249 16.379-6.249 22.627 0l-5.657 5.657z" fill="#FFF"/></g></svg>