<svg width="30" height="28" viewBox="0 0 30 28" xmlns="http://www.w3.org/2000/svg"><defs><linearGradient x1="50%" y1="50%" x2="0%" y2="100%" id="a"><stop stop-color="#78D9FF" offset="0%"/><stop stop-color="#00BDFE" offset="100%"/></linearGradient><linearGradient x1="100%" y1="0%" x2="0%" y2="0%" id="b"><stop stop-color="#78D9FF" offset="0%"/><stop stop-color="#00BDFE" offset="100%"/></linearGradient><linearGradient x1="50%" y1="50%" x2="100%" y2="0%" id="c"><stop stop-color="#9379FF" offset="0%"/><stop stop-color="#7959FF" offset="100%"/></linearGradient><linearGradient x1="0%" y1="100%" x2="100%" y2="100%" id="d"><stop stop-color="#9379FF" offset="0%"/><stop stop-color="#7959FF" offset="100%"/></linearGradient></defs><g fill="none" fill-rule="evenodd"><path d="M-1-2h32v32H-1z"/><path d="M8 0c8.837 0 16 7.163 16 16H8V0z" fill="url(#a)" transform="rotate(-45 11.086 11.379)"/><path d="M24 24a8 8 0 0 1-8-8h8v8z" fill="url(#b)" transform="rotate(-45 11.086 11.379)"/><path d="M16 32C7.163 32 0 24.837 0 16h16v16z" fill="url(#c)" transform="rotate(-45 11.086 11.379)"/><path d="M0 8a8 8 0 0 1 8 8H0V8z" fill="url(#d)" transform="rotate(-45 11.086 11.379)"/></g></svg>